<?xml version="1.0" encoding="UTF-8" standalone="no"?>
<svg width="238px" height="198px" viewBox="0 0 238 198" version="1.1" xmlns="http://www.w3.org/2000/svg" xmlns:xlink="http://www.w3.org/1999/xlink" xmlns:sketch="http://www.bohemiancoding.com/sketch/ns">
    <title>Logo</title>
    <description>Created with Sketch (http://www.bohemiancoding.com/sketch)</description>
    <defs>
        <linearGradient x1="50%" y1="0%" x2="50%" y2="131.818997%" id="linearGradient-1">
            <stop stop-color="#FFE1F4" offset="0%"></stop>
            <stop stop-color="#FAF3F8" offset="100%"></stop>
        </linearGradient>
        <linearGradient x1="50%" y1="0%" x2="81.3752128%" y2="100%" id="linearGradient-2">
            <stop stop-color="#EB80C3" offset="0%"></stop>
            <stop stop-color="#B86399" offset="100%"></stop>
        </linearGradient>
    </defs>
    <g id="Page-1" stroke="none" stroke-width="1" fill="none" fill-rule="evenodd" sketch:type="MSPage">
        <g id="Logo" sketch:type="MSArtboardGroup" transform="translate(-69.000000, -65.000000)">
            <g id="Srdce" sketch:type="MSLayerGroup" transform="translate(9.000000, 65.000000)">
                <path d="M164.704854,59.5984465 C164.704854,59.5984465 163.703128,53.2353648 159.696224,48.222732 C158.461895,46.6785885 145.678969,33.750679 145.678969,33.750679 C145.678969,33.750679 148.058575,30.5453076 146.673786,29.1747272 C145.511069,28.0239404 140.647625,28.7709602 139.744815,27.8774137 L134.713668,22.8978897 C118.61846,6.96783069 92.5924447,7.0426096 76.5946688,23.0531709 L76.8329977,22.8146515 C56.5340907,43.1297813 57.0771199,75.5146111 78.0194203,95.1511431 C78.0194203,95.1511431 134.831487,148.231992 147.095393,160.5057 C168.651023,182.078558 178.369605,198 178.369605,198 C178.369605,198 206.019814,161.26384 221.803238,145.467801 C252.970123,114.276011 280.179513,91.3544882 280.179513,91.3544882 C301.741269,72.4011929 302.765598,40.5684326 282.459903,20.2465092 L278.278745,16.0620094 C257.976413,-4.25654772 225.268648,-4.05260242 205.231929,16.516966 C205.231929,16.516966 196.197935,25.7713699 185.288833,37.0152973 C183.414373,38.9472882 175.673501,39.1864532 173.720387,41.2050458 C172.329103,42.6429738 176.736157,45.8478616 175.335975,47.2984731" id="Path-7" fill="url(#linearGradient-1)" sketch:type="MSShapeGroup" transform="translate(179.500000, 99.500000) scale(-1, 1) translate(-179.500000, -99.500000) "></path>
                <path d="M238.020712,13.4306319 C253.018732,6.68142706 271.000907,10.0146282 283.317832,22.3364114 L282.939352,21.9577819 C295.494656,34.5180378 300.661071,57.1967084 296.683905,70.1275947 C292.706739,83.0584811 287.439818,87.4110688 281.769535,94 C280.599715,94.0000029 276.165914,63.1027852 263.872289,54.2126576 C256.542715,48.9122814 246.090696,41.7778708 241.003586,32.3296205 C237.558272,25.9306658 238.020712,15.4199989 238.020712,15.4199989" id="Path-7" fill="url(#linearGradient-2)" sketch:type="MSShapeGroup"></path>
                <path d="M154,16.8909988 C132.972846,-5.12759131 99.3909491,-5.43437322 79.1157712,14.8893089 L75.1799338,18.892689 C54.9052151,39.2159108 54.645272,71.9947595 76.1783902,90.9535319 C76.1783902,90.9535319 104.962627,114.860528 136.027785,146 L116.058658,86.9501499 L120.052483,64.9315605 L118.055571,48.9180384 L132.972843,40.8769496 L138.024699,25.898604 L153.001545,17.8918439" id="Path" fill="url(#linearGradient-2)" sketch:type="MSShapeGroup"></path>
                <path d="M235,36 C235,36 227.297983,37.0405577 225.378201,38.7153742 C223.458419,40.3901906 223.676525,43.0462637 225.217684,44.534087 C226.758843,46.0219103 228.724388,46.8436466 231.558093,44.6813962 C234.773542,42.2278568 235,36 235,36 Z" id="Path-9" fill="#EB80C3" sketch:type="MSShapeGroup" transform="translate(229.500000, 41.000000) rotate(94.000000) translate(-229.500000, -41.000000) "></path>
                <path d="M155.926567,60.651779 C161.578076,63.9784318 168,66 168,66 C168,66 165.349878,57.8501403 163.815997,54.5309467 C162.282116,51.2117532 159.871282,48.4101138 159.871282,48.4101138 C157.560522,46.01978 152.709012,43.2981105 150.009494,46.3698364 C147.309977,49.4415623 150.275058,57.3251261 155.926567,60.651779 Z" id="Path-8" fill="#EB80C3" sketch:type="MSShapeGroup" transform="translate(158.500000, 55.000000) rotate(90.000000) translate(-158.500000, -55.000000) "></path>
                <path d="M0.0220271043,195 C0.0220271043,195 -5.97640933,255 180.00082,255 C365.97805,255 359.977955,195 359.977955,195" id="Path-6" sketch:type="MSShapeGroup"></path>
                <path d="M209.187437,49.0193613 C207.516147,45.6678971 207.676948,43.369267 207.126691,41.0850179 C206.955306,40.3735571 202.833814,44.3407287 203.005199,45.0521895 C203.672023,47.8203348 205.002621,49.6159952 207.652941,51.9756011 C210.30326,54.3352069 213.627487,55.4681826 213.975602,54.8192514 C214.323717,54.1703202 210.858726,52.3708253 209.187437,49.0193613 Z" id="Path-11" fill="#EB80C3" sketch:type="MSShapeGroup"></path>
                <path d="M188.271104,76.724247 C193.254165,73.2422329 198.705804,68.3298907 198.998478,66.2432356 C199.100807,65.5136669 194.010712,59.1036796 193.319279,59.0007199 C192.627846,58.8977601 188.902125,69.8675368 185.115993,73.7703256 C181.329861,77.6731143 174.589425,81.2518296 175.019641,81.8936089 C175.449857,82.5353882 183.288043,80.2062612 188.271104,76.724247 Z" id="Path-10" fill="#EB80C3" sketch:type="MSShapeGroup"></path>
            </g>
        </g>
    </g>
</svg>